HIERARCHY
ROOT hip
{
	OFFSET 0.000000 0.000000 0.000000 
	CHANNELS 6 Xposition Yposition Zposition Xrotation Zrotation Yrotation
	JOINT abdomen
	{
		OFFSET 0.000000 3.402643 0.000000 
		CHANNELS 3 Xrotation Zrotation Yrotation
		JOINT chest
		{
			OFFSET 0.000000 8.438565 -0.680529 
			CHANNELS 3 Xrotation Zrotation Yrotation
			JOINT neck
			{
				OFFSET 0.000000 10.207942 -0.272212 
				CHANNELS 3 Xrotation Zrotation Yrotation
				JOINT head
				{
					OFFSET 0.000000 3.130431 0.000000 
					CHANNELS 3 Xrotation Zrotation Yrotation
					End Site
					{
						OFFSET 0.000000 3.130435 0.000000 
					}
				}
			}
			JOINT lCollar
			{
				OFFSET 3.470700 6.669187 -0.816635 
				CHANNELS 3 Yrotation Zrotation Xrotation
				JOINT lShldr
				{
					OFFSET 3.198488 0.000000 0.000000 
					CHANNELS 3 Zrotation Yrotation Xrotation
					JOINT lForeArm
					{
						OFFSET 10.139888 0.000000 0.000000 
						CHANNELS 3 Yrotation Zrotation Xrotation
						JOINT lHand
						{
							OFFSET 8.370511 0.000000 0.000000 
							CHANNELS 3 Zrotation Yrotation Xrotation
							End Site
							{
								OFFSET 4.083176 0.000000 0.000000 
							}
						}
					}
				}
			}
			JOINT rCollar
			{
				OFFSET -3.470700 6.669187 -0.816635 
				CHANNELS 3 Yrotation Zrotation Xrotation
				JOINT rShldr
				{
					OFFSET -3.198488 0.000000 0.000000 
					CHANNELS 3 Zrotation Yrotation Xrotation
					JOINT rForeArm
					{
						OFFSET -10.139888 0.000000 0.000000 
						CHANNELS 3 Yrotation Zrotation Xrotation
						JOINT rHand
						{
							OFFSET -8.370511 0.000000 0.000000 
							CHANNELS 3 Zrotation Yrotation Xrotation
							End Site
							{
								OFFSET -4.083176 0.000000 0.000000 
							}
						}
					}
				}
			}
		}
	}
	JOINT lThigh
	{
		OFFSET 5.308129 -1.633274 1.361059 
		CHANNELS 3 Xrotation Zrotation Yrotation
		JOINT lShin
		{
			OFFSET -2.041588 -20.007561 0.000000 
			CHANNELS 3 Xrotation Zrotation Yrotation
			JOINT lFoot
			{
				OFFSET 0.000000 -19.190928 -1.224953 
				CHANNELS 3 Xrotation Yrotation Zrotation
				End Site
				{
					OFFSET 0.000000 -2.449906 4.627600 
				}
			}
		}
	}
	JOINT rThigh
	{
		OFFSET -5.308129 -1.633274 1.361059 
		CHANNELS 3 Xrotation Zrotation Yrotation
		JOINT rShin
		{
			OFFSET 2.041588 -20.007561 0.000000 
			CHANNELS 3 Xrotation Zrotation Yrotation
			JOINT rFoot
			{
				OFFSET 0.000000 -19.190928 -1.224953 
				CHANNELS 3 Xrotation Yrotation Zrotation
				End Site
				{
					OFFSET 0.000000 -2.449906 4.627600 
				}
			}
		}
	}
}
MOTION
Frames: 10
Frame Time: 0.033333
0.334508 -3.439476 0.334508 13.453522 5.576123 13.578015 28.505713 1.909002 -3.520120 0.625001 0.000052 -0.009734 -4.202206 -0.844673 -4.384375 10.524219 0.508720 -0.030344 -7.497566 -11.486022 -1.637963 -56.194004 -9.808618 -24.729923 -14.015388 -1.832937 2.394471 -38.815926 -50.520088 65.799850 -1.536036 11.465294 -1.627719 63.512222 13.498133 -21.289661 37.006248 2.421582 2.171580 38.805038 50.520535 65.806732 -34.511120 6.426049 3.205787 46.582161 -0.037004 -4.069568 -11.653141 6.642705 -2.627471 -21.062517 -12.332394 -12.989541 52.294952 -0.361491 4.239243 -29.240726 -0.770910 4.737544 
0.334508 -4.855297 0.334508 13.453522 5.576123 13.578015 28.505713 1.909002 -3.520120 2.207032 0.000051 -0.009732 7.153109 0.047209 -4.358855 10.524219 0.508720 -0.030344 -5.136260 -11.848407 9.988124 -54.014538 -21.698729 -30.064970 -14.015388 -1.832937 2.394471 -38.815926 -50.520088 65.799850 -3.887459 11.822014 9.997520 61.760639 25.983175 -25.020298 37.006248 2.421582 2.171580 38.805038 50.520535 65.806732 -37.885410 6.493179 3.093393 53.952465 0.447014 -4.287369 -15.675376 6.788897 -2.489275 -23.385324 -13.161182 -12.458150 58.561565 -0.771410 4.406621 -33.140137 -0.899012 5.023625 
0.334508 -6.193401 0.334508 13.453522 5.576123 13.578015 28.505713 1.909002 -3.520120 3.574221 0.000050 -0.009731 17.008816 0.808625 -4.202903 10.524219 0.508720 -0.030344 -3.070578 -11.777224 20.086296 -50.882236 -31.772676 -35.599747 -14.015388 -1.832937 2.394471 -38.815926 -50.520088 65.799850 -5.962253 11.751107 20.094872 59.252956 36.674999 -29.029892 37.006248 2.421582 2.171580 38.805038 50.520535 65.806732 -40.556454 6.582383 2.972193 60.324772 0.860130 -4.485952 -19.419500 6.938820 -2.404198 -25.027525 -13.875527 -11.999696 63.901291 -1.142402 4.509468 -36.801712 -0.995493 5.355608 
0.334508 -7.409343 0.334508 13.453522 5.576123 13.578015 28.505713 1.909002 -3.520120 3.951178 -1.981337 4.330418 20.296574 0.148339 -1.675728 10.524219 0.508720 -0.030344 0.214833 -11.675869 23.424500 -48.322449 -37.426117 -31.681890 -14.015388 -1.832937 2.394471 -38.815926 -50.520088 65.799850 -4.032880 11.648645 23.432724 52.206287 34.525604 -18.907591 37.006248 2.421582 2.171580 38.805038 50.520535 65.806732 -42.447964 6.767117 1.844597 65.898819 1.254138 -4.563946 -23.097031 7.716503 -3.121115 -25.437698 -14.715236 -13.289623 68.392960 -1.464590 4.568783 -40.693256 0.463038 5.251902 
0.334508 -8.480934 0.334508 13.453522 5.576123 13.578015 28.505713 1.909002 -3.520120 4.012760 -3.801775 8.222999 22.214777 -0.707599 0.584090 10.524219 0.508720 -0.030344 3.028563 -11.599628 25.000000 -46.394936 -41.626820 -27.603586 -14.015388 -1.832937 2.394471 -38.815926 -50.520088 65.799850 -2.012106 11.568563 25.000000 46.733688 31.955511 -8.677463 37.006248 2.421582 2.171580 38.805038 50.520535 65.806732 -43.667664 6.981918 0.896052 70.544998 1.605347 -4.637374 -26.498409 8.341048 -3.818689 -25.261126 -15.358968 -14.385591 71.978455 -1.718606 4.608151 -44.248569 1.628310 5.252842 
0.334508 -9.352638 0.334508 13.453522 5.576123 13.578015 28.505713 1.909002 -3.520120 4.001134 -4.620091 9.979846 23.000166 -1.489805 2.400654 10.524219 0.508720 -0.030344 5.174123 -11.564691 25.000000 -45.757607 -43.893410 -24.864298 -14.015388 -1.832937 2.394471 -38.815926 -50.520088 65.799850 -0.202000 11.528941 25.000000 46.797173 30.605022 -2.192634 37.006248 2.421582 2.171580 38.805038 50.520535 65.806732 -44.251125 8.133259 1.800890 74.228241 1.867954 -4.663231 -29.556797 6.954444 -3.885928 -25.453331 -14.028491 -12.075194 82.132782 -2.450814 4.628162 -32.716518 0.706900 4.835544 
0.334508 -15.165867 0.334508 13.453522 5.576123 13.578015 28.505713 1.909002 -3.520120 3.992329 -4.647096 10.027084 22.959368 -2.046792 3.966275 10.524219 0.508720 -0.030344 6.831813 -11.466208 25.000000 -46.298641 -44.683250 -23.038692 -14.015388 -1.832937 2.394471 -38.815926 -50.520088 65.799850 7.171918 14.600424 25.000000 34.594055 26.037699 -12.878777 39.527641 2.482100 2.131738 38.805038 50.520535 65.806732 -63.871960 2.616416 7.218276 85.124878 2.647253 -4.644795 -33.073784 -4.221120 -4.040137 -42.824677 -15.885469 -4.936806 102.199417 -3.847110 4.275840 -28.569542 -13.619086 12.157495 
0.334508 -21.012415 0.334508 27.537937 7.606213 27.854445 28.505713 1.909002 -3.520120 4.000806 -4.611210 9.954599 22.904074 -2.561870 5.435669 10.524219 0.508720 -0.030344 8.382762 -11.368875 25.000000 -46.897655 -45.386719 -21.361244 -14.015388 -1.832937 2.394471 -38.815926 -50.520088 65.799850 14.343247 17.551785 25.000000 24.988844 19.506313 -21.469357 42.005276 2.543308 2.091551 38.805038 50.520535 65.806732 -83.164986 0.609025 -20.628149 84.178581 2.578132 -4.671164 -11.979846 8.862924 24.962067 -60.891151 9.208599 -8.680881 103.320412 -3.937788 4.281302 -16.464378 18.420368 16.552114 
0.334508 -25.715200 0.334508 40.002579 6.467487 40.508030 28.505713 1.909002 -3.520120 4.009289 -4.575330 9.872359 22.830509 -3.099555 6.987203 10.524219 0.508720 -0.030344 10.016563 -11.263045 25.000000 -47.573078 -46.111343 -19.576189 -14.015388 -1.832937 2.394471 -38.815926 -50.520088 65.799850 21.666231 20.439989 25.000000 20.000057 12.947653 -26.182499 44.692207 2.599154 2.054444 38.805038 50.520535 65.806732 -82.650688 15.830516 -21.587891 70.476013 1.600861 -4.657292 -5.064031 -2.378596 16.501974 -56.995281 12.772028 -12.251549 88.002266 -2.850746 4.588338 -2.743020 19.232140 9.992075 
0.334508 -29.429726 0.334508 49.861023 3.607618 50.439556 28.505713 1.909002 -3.520120 4.017786 -4.539456 9.799898 22.777206 -3.568527 8.331698 10.524219 0.508720 -0.030344 11.437500 -11.171915 25.000000 -48.194118 -46.721863 -17.993923 -14.015388 -1.832937 2.394471 -38.815926 -50.520088 65.799850 27.997858 22.814837 24.434265 27.485382 12.645423 -22.094200 47.630398 2.658448 1.999688 38.805038 50.520535 65.806732 -78.034721 30.613262 -17.780045 60.040756 0.887461 -4.479079 0.869305 -13.094456 4.025248 -51.715248 14.295967 -14.754944 73.614525 -1.823965 4.655381 8.768073 17.396235 3.175891 
